<?xml version="1.0" encoding="UTF-8" standalone="no"?>
<svg
   width="97.626999"
   height="97.626999"
   version="1.1"
   id="svg1"
   sodipodi:docname="icon-scholar.svg"
   xml:space="preserve"
   inkscape:version="1.4 (e7c3feb1, 2024-10-09)"
   xmlns:inkscape="http://www.inkscape.org/namespaces/inkscape"
   xmlns:sodipodi="http://sodipodi.sourceforge.net/DTD/sodipodi-0.dtd"
   xmlns="http://www.w3.org/2000/svg"
   xmlns:svg="http://www.w3.org/2000/svg"><defs
     id="defs1" /><sodipodi:namedview
     id="namedview1"
     pagecolor="#ffffff"
     bordercolor="#000000"
     borderopacity="0.25"
     inkscape:showpageshadow="2"
     inkscape:pageopacity="0.0"
     inkscape:pagecheckerboard="0"
     inkscape:deskcolor="#d1d1d1"
     inkscape:zoom="3.201417"
     inkscape:cx="67.938665"
     inkscape:cy="91.834333"
     inkscape:window-width="1512"
     inkscape:window-height="835"
     inkscape:window-x="0"
     inkscape:window-y="38"
     inkscape:window-maximized="1"
     inkscape:current-layer="svg1" /><circle
     style="font-variation-settings:'wght' 600;fill:#181818;fill-opacity:1;stroke-width:3.38589"
     id="path2"
     cx="48.813499"
     cy="48.813499"
     r="48.813499" /><g
     id="g2"
     transform="matrix(0.71262726,0,0,0.77955529,13.368637,19.280404)"
     style="fill:#ffffff;fill-opacity:1"><path
       d="M 50,0 0,26.315 50,52.63 78.946,37.993 c 0,0 0,13.267 0,19.899 0,10.527 10.527,10.527 10.527,10.527 v -5.263 c 0,0 -5.263,-0.301 -5.263,-5.265 0,-7.895 0,-22.861 0,-22.861 L 100,26.315 Z"
       id="path1"
       style="fill:#ffffff;fill-opacity:1" /><path
       d="m 26.315,47.367 v 10.526 c 0,2.615 1.711,6.118 5.263,7.895 L 50,73.682 65.789,65.787 c 3.553,-1.776 8.143,-5.292 7.895,-7.895 V 47.367 L 50,58.879 Z"
       id="path2-2"
       style="fill:#ffffff;fill-opacity:1" /></g></svg>
